<svg width="190" height="22" viewBox="0 0 190 22" fill="none" xmlns="http://www.w3.org/2000/svg">
<g clip-path="url(#clip0_15426_18570)">
<path d="M32.7505 16.8235H23.4785V2.08093H27.1917V13.7798H32.7505V16.8235ZM35.8597 4.7727C34.6654 4.7727 33.9054 4.04799 33.9054 2.97129C33.9054 1.87388 34.6654 1.14917 35.8597 1.14917C37.0323 1.14917 37.814 1.87388 37.814 2.97129C37.814 4.04799 37.0323 4.7727 35.8597 4.7727ZM37.51 16.8235H34.1877V6.22211H37.51V16.8235ZM43.9229 21.5238C41.7514 21.5238 39.6886 20.7783 38.5377 19.5981L39.8189 17.3205C40.7091 18.2936 42.164 18.9355 43.5537 18.9355C45.5514 18.9355 46.8326 17.7967 46.8326 15.9746V14.9186H46.8109C46.1594 16.1195 44.8566 16.8856 43.4451 16.8856C40.8177 16.8856 39.1457 14.7943 39.1457 11.5021C39.1457 8.08564 40.8177 5.91152 43.38 5.91152C44.8783 5.91152 46.2246 6.73976 46.8326 8.04423H46.8543L47.2451 6.22211H50.1549V16.016C50.1549 19.4739 47.7446 21.5238 43.9229 21.5238ZM44.7263 14.2974C46.0726 14.2974 46.9629 13.1793 46.9629 11.44C46.9629 9.7007 46.0726 8.56188 44.7263 8.56188C43.3583 8.56188 42.468 9.67999 42.468 11.44C42.468 13.2 43.3583 14.2974 44.7263 14.2974ZM55.3307 16.8235H52.0301V1.45976H55.3307V8.02352H55.3524C56.0472 6.69835 57.2849 5.95294 58.8484 5.95294C60.8895 5.95294 62.1055 7.17458 62.1055 9.28658V16.8235H58.7832V10.0941C58.7832 9.10023 58.2187 8.52046 57.3067 8.52046C56.1124 8.52046 55.3307 9.30729 55.3307 10.5911V16.8235ZM68.8227 17.1548C66.2604 17.1548 64.849 15.7261 64.849 13.4692L64.8273 8.62399H62.9598V6.22211H64.849V3.40611L68.1496 2.70211V6.22211H71.9496V8.62399H68.1496L68.1713 12.9101C68.1713 13.9661 68.7358 14.5873 69.6044 14.5873C70.4078 14.5873 71.0158 14.1732 71.4067 13.2828L72.4924 15.2085C71.7976 16.4508 70.4513 17.1548 68.8227 17.1548ZM80.4439 5.95294C82.4851 5.95294 83.7662 7.19529 83.7662 9.28658V16.8235H80.4439V10.0941C80.4439 9.10023 79.8793 8.52046 78.9673 8.52046C77.7731 8.52046 76.9913 9.30729 76.9913 10.5911V16.8235H73.6908V6.22211H76.4268L76.8828 8.02352H76.9045C77.5776 6.69835 78.8805 5.95294 80.4439 5.95294ZM87.3083 4.7727C86.1141 4.7727 85.3541 4.04799 85.3541 2.97129C85.3541 1.87388 86.1141 1.14917 87.3083 1.14917C88.4809 1.14917 89.2626 1.87388 89.2626 2.97129C89.2626 4.04799 88.4809 4.7727 87.3083 4.7727ZM88.9586 16.8235H85.6363V6.22211H88.9586V16.8235ZM97.6728 5.95294C99.714 5.95294 100.995 7.19529 100.995 9.28658V16.8235H97.6728V10.0941C97.6728 9.10023 97.1083 8.52046 96.1963 8.52046C95.002 8.52046 94.2203 9.30729 94.2203 10.5911V16.8235H90.9197V6.22211H93.6557L94.1117 8.02352H94.1334C94.8066 6.69835 96.1094 5.95294 97.6728 5.95294ZM107.252 21.5238C105.08 21.5238 103.017 20.7783 101.866 19.5981L103.148 17.3205C104.038 18.2936 105.493 18.9355 106.882 18.9355C108.88 18.9355 110.161 17.7967 110.161 15.9746V14.9186H110.14C109.488 16.1195 108.185 16.8856 106.774 16.8856C104.146 16.8856 102.474 14.7943 102.474 11.5021C102.474 8.08564 104.146 5.91152 106.709 5.91152C108.207 5.91152 109.553 6.73976 110.161 8.04423H110.183L110.574 6.22211H113.484V16.016C113.484 19.4739 111.073 21.5238 107.252 21.5238ZM108.055 14.2974C109.401 14.2974 110.292 13.1793 110.292 11.44C110.292 9.7007 109.401 8.56188 108.055 8.56188C106.687 8.56188 105.797 9.67999 105.797 11.44C105.797 13.2 106.687 14.2974 108.055 14.2974ZM126.402 17.2376C122.167 17.2376 119.388 14.1525 119.388 9.45223C119.388 4.71058 122.341 1.62541 126.901 1.62541C130.071 1.62541 132.612 3.48893 133.372 6.36705L129.919 7.02964C129.485 5.60094 128.269 4.64846 126.836 4.64846C124.599 4.64846 123.101 6.5327 123.101 9.41082C123.101 12.3303 124.795 14.2767 127.335 14.2767C129.55 14.2767 131.114 12.8273 131.2 10.6532H125.598V8.45835H134.783V16.8235H132.069L131.787 14.2146H131.765C130.766 16.0988 128.747 17.2376 126.402 17.2376ZM139.635 17.072C137.529 17.072 136.096 15.9125 136.096 14.0903C136.096 12.1647 137.681 10.9223 140.656 10.6118L142.371 10.4254C142.87 10.3633 143.196 10.0941 143.196 9.57647C143.196 8.6447 142.523 8.12705 141.546 8.12705C140.417 8.12705 139.678 8.97599 139.613 10.0941L136.465 9.65929C136.552 7.44376 138.528 5.84941 141.524 5.84941C144.564 5.84941 146.453 7.48517 146.453 10.0734V14.1732C146.453 14.608 146.649 14.8772 146.996 14.8772C147.257 14.8772 147.561 14.7322 147.821 14.4631L148.538 16.1609C147.843 16.8028 146.779 17.0927 145.824 17.0927C144.477 17.0927 143.5 16.368 143.283 15.3741L143.24 15.1049H143.218C142.545 16.3266 141.264 17.072 139.635 17.072ZM141.003 14.8565C142.241 14.8565 143.153 13.9454 143.153 12.5788V12.0819L141.524 12.2475C140.026 12.4132 139.418 12.9722 139.418 13.6969C139.418 14.4009 140.069 14.8565 141.003 14.8565ZM152.879 16.8235H149.578V6.22211H152.227L152.683 8.12705H152.705C153.291 6.76047 154.616 5.93223 156.179 5.93223C157.786 5.93223 158.894 6.73976 159.35 8.16846H159.371C160.088 6.71905 161.434 5.93223 162.998 5.93223C165.039 5.93223 166.233 7.25741 166.233 9.49364V16.8235H162.911V10.1562C162.911 9.18305 162.368 8.62399 161.412 8.62399C160.262 8.62399 159.567 9.45223 159.567 10.7774V16.8235H156.244V10.1562C156.244 9.18305 155.702 8.62399 154.746 8.62399C153.574 8.62399 152.879 9.45223 152.879 10.7774V16.8235ZM173.699 17.1755C170.073 17.1755 167.663 14.9186 167.663 11.4607C167.663 8.08564 169.834 5.84941 173.178 5.84941C176.37 5.84941 178.433 7.98211 178.455 11.2536C178.455 11.6885 178.411 12.1233 178.324 12.3925H170.985C171.115 13.9454 172.179 14.8979 173.721 14.8979C174.894 14.8979 175.871 14.3181 176.327 13.3449L178.65 14.3181C177.999 16.0781 176.001 17.1755 173.699 17.1755ZM170.985 10.5911H175.154C175.067 9.03811 174.329 8.14776 173.156 8.14776C171.919 8.14776 171.137 9.07952 170.985 10.5911ZM184.663 17.1548C181.905 17.1548 179.756 15.9539 179.625 13.5313L182.557 13.1793C182.622 14.3595 183.534 15.0635 184.772 15.0635C185.792 15.0635 186.574 14.608 186.574 13.9454C186.574 13.3035 185.988 12.9515 184.641 12.6409L183.186 12.2889C181.015 11.792 180.103 10.8602 180.103 9.26588C180.103 7.17458 181.905 5.89082 184.511 5.89082C186.856 5.89082 188.767 7.00894 188.984 9.14164L186.096 9.47294C186.031 8.47905 185.358 7.9407 184.402 7.9407C183.556 7.9407 182.969 8.39623 182.969 8.97599C182.969 9.55576 183.49 9.88705 184.706 10.2183L186.205 10.5703C188.55 11.1294 189.614 12.0819 189.636 13.6762C189.636 15.8296 187.573 17.1548 184.663 17.1548Z" fill="#1F2418"/>
<mask id="mask0_15426_18570" style="mask-type:luminance" maskUnits="userSpaceOnUse" x="0" y="0" width="17" height="21">
<path d="M16.9643 0H0V20.0588H16.9643V0Z" fill="white"/>
</mask>
<g mask="url(#mask0_15426_18570)">
<path d="M8.30043 7.16385V0H6.78579C5.48321 4.32699 2.96879 9.11253 0 12.895H8.66387V20.0588H10.1785C11.4811 15.7318 13.9955 10.9463 16.9643 7.16385H8.30043Z" fill="#1F2418"/>
</g>
</g>
<defs>
<clipPath id="clip0_15426_18570">
<rect width="190" height="22" fill="white"/>
</clipPath>
</defs>
</svg>
